# xmcd CD database file
#
# Track frame offsets:
#	150
#	12580
#	24650
#	36522
#	49407
#	63097
#	75920
#	88942
#	102877
#	115650
#	127887
#	140972
#	153812
#	166220
#	178212
#	190032
#
# Disc length: 2716 seconds
#
# Revision: 1
# Processed by: cddbd v1.5.2PL0 Copyright (c) Steve Scherf et al.
# Submitted via: CDex 1.51
#
DISCID=d10a9a10
DTITLE=Navarro, Fats  - Nostalgia: Memorial No. 2
DYEAR=1947
DGENRE=Jazz
TTITLE0=Nostalgia
TTITLE1=Barry's Bop
TTITLE2=Be Bop Romp
TTITLE3=Fats Blows
TTITLE4=Dextivity
TTITLE5=Dextrose
TTITLE6=Dexter's Mood
TTITLE7=Index
TTITLE8=Steeling Trash
TTITLE9=Hollerin' and Screaming'
TTITLE10=Fracture
TTITLE11=Calling Dr. Jazz
TTITLE12=Nostalgia (take 3)
TTITLE13=Barry's Bop (take 3)
TTITLE14=Be Bop Romp (take 4)
TTITLE15=That Someone Must be You
EXTD=YEAR: 1947
EXTT0=
EXTT1=
EXTT2=
EXTT3=
EXTT4=
EXTT5=
EXTT6=
EXTT7=
EXTT8=
EXTT9=
EXTT10=
EXTT11=
EXTT12=
EXTT13=
EXTT14=
EXTT15=
PLAYORDER=
